<?xml version="1.0" encoding="utf-8"?>
<!-- Generator: Adobe Illustrator 27.2.0, SVG Export Plug-In . SVG Version: 6.00 Build 0)  -->
<svg  width="500" version="1.1" id="Vrstva_1" xmlns="http://www.w3.org/2000/svg" xmlns:xlink="http://www.w3.org/1999/xlink" x="0px" y="0px"
	 viewBox="0 0 268.2 155.1" style="enable-background:new 0 0 268.2 155.1;" xml:space="preserve">
<style type="text/css">
	.st0{fill:#83D0F5;}
	.st1{fill:#2DAFE6;}
	.st2{fill:#BCCF00;}
	.st3{fill:#004A70;}
	.st4{fill:#65B32E;}
	.st5{fill:#F3F5DB;}
	.st6{fill:#DFF2FD;}
</style>
<polygon class="st0" points="171.9,71.5 158.2,95.3 144.4,71.5 "/>
<polygon class="st1" points="130.7,47.7 116.9,23.9 103.2,47.7 "/>
<polygon class="st2" points="144.4,71.5 158.2,47.7 171.9,71.5 "/>
<polygon class="st1" points="171.9,23.8 185.7,0 199.4,23.8 "/>
<polygon class="st3" points="158.2,0 171.9,23.8 185.7,0 "/>
<polygon class="st2" points="185.7,0 199.4,23.8 213.2,0 "/>
<polygon class="st0" points="130.7,47.6 144.4,23.8 158.2,47.6 "/>
<polygon class="st0" points="48.1,143 61.9,119.1 75.6,143 "/>
<polygon class="st0" points="103.2,95.3 116.9,119.1 130.7,95.3 "/>
<polygon class="st1" points="61.9,119.1 75.6,143 89.4,119.1 "/>
<polygon class="st0" points="20.6,47.7 34.4,71.5 48.1,47.7 "/>
<polygon class="st1" points="48.1,0 61.9,23.9 75.6,0 "/>
<polygon class="st1" points="89.4,71.5 103.2,47.7 116.9,71.5 "/>
<polygon class="st3" points="61.9,23.9 75.6,0 89.4,23.9 "/>
<polygon class="st2" points="240.7,23.8 254.4,47.6 268.2,23.8 "/>
<polygon class="st4" points="116.9,119.1 103.2,143 89.4,119.1 "/>
<polygon class="st0" points="89.4,23.9 103.1,0 116.9,23.9 "/>
<polygon class="st3" points="171.9,119.1 185.7,95.3 199.4,119.1 "/>
<polygon class="st2" points="116.9,23.9 89.4,71.5 61.9,23.9 "/>
<polygon class="st0" points="199.4,71.7 192.6,59.8 185.7,71.7 "/>
<polygon class="st2" points="13.8,35.8 6.9,23.9 0,35.8 "/>
<polygon class="st4" points="227,23.8 233.8,35.7 240.7,23.8 "/>
<polygon class="st0" points="233.8,11.9 240.7,23.9 247.6,11.9 "/>
<polygon class="st0" points="240.7,143.1 247.6,155.1 254.5,143.1 "/>
<polygon class="st2" points="199.4,71.7 206.3,83.6 213.2,71.7 "/>
<polygon class="st1" points="61.9,47.7 55,35.8 48.1,47.7 "/>
<polygon class="st4" points="213.2,119.1 206.3,107.2 199.4,119.1 "/>
<polygon class="st5" points="185.7,95.3 158.3,143.1 130.7,95.3 "/>
<path class="st2" d="M130.7,95.3l27.6,47.8l0.8-1.5l-26.8-46.3H130.7z M134.1,95.3l25.9,44.9l0.8-1.5l-25.1-43.4H134.1z M137.4,95.3
	l24.2,42l0.8-1.5l-23.4-40.5H137.4z M140.8,95.3l22.5,39l0.8-1.5l-21.7-37.6H140.8z M144.2,95.3l20.8,36.1l0.8-1.5l-20-34.6H144.2z
	 M147.5,95.3l19.2,33.2l0.8-1.5l-18.3-31.7H147.5z M150.9,95.3l17.5,30.3l0.8-1.5l-16.6-28.8H150.9z M154.2,95.3l15.8,27.3l0.8-1.5
	l-14.9-25.9H154.2z M157.6,95.3l14.1,24.4l0.8-1.5l-13.3-23H157.6z M161,95.3l12.4,21.5l0.8-1.5l-11.6-20H161z M164.3,95.3
	l10.7,18.6l0.8-1.5L166,95.3H164.3z M167.7,95.3l9,15.7l0.8-1.5l-8.2-14.2H167.7z M171,95.3l7.4,12.7l0.8-1.5l-6.5-11.3H171z
	 M174.4,95.3l5.7,9.8l0.8-1.5l-4.8-8.4H174.4z M177.8,95.3l4,6.9l0.8-1.5l-3.1-5.4H177.8z M181.1,95.3l2.3,4l0.8-1.5l-1.5-2.5H181.1
	z M184.5,95.3l0.6,1.1l0.6-1.1H184.5z"/>
<polygon class="st6" points="116.9,119.1 89.4,71.5 61.9,119.1 "/>
<path class="st0" d="M115.5,119.1h1.5l-0.7-1.3L115.5,119.1z M112.1,119.1h1.7l1.6-2.7l-0.8-1.5L112.1,119.1z M108.8,119.1h1.7
	l3.2-5.6l-0.8-1.4L108.8,119.1z M105.4,119.1h1.7l4.9-8.5l-0.8-1.5L105.4,119.1z M102.1,119.1h1.7l6.6-11.4l-0.8-1.4L102.1,119.1z
	 M98.7,119.1h1.7l8.3-14.3l-0.8-1.4L98.7,119.1z M95.4,119.1H97l9.9-17.2l-0.8-1.4L95.4,119.1z M92,119.1h1.7L105.3,99l-0.8-1.4
	L92,119.1z M88.7,119.1h1.7l13.3-23l-0.8-1.4L88.7,119.1z M85.3,119.1H87l15-25.9l-0.8-1.4L85.3,119.1z M82,119.1h1.7l16.6-28.8
	l-0.8-1.4L82,119.1z M78.6,119.1h1.7l18.3-31.7L97.8,86L78.6,119.1z M75.3,119.1H77l20-34.6l-0.8-1.4L75.3,119.1z M71.9,119.1h1.7
	l21.7-37.5l-0.8-1.4L71.9,119.1z M68.6,119.1h1.7l23.3-40.4l-0.8-1.4L68.6,119.1z M65.3,119.1h1.7l25-43.3l-0.8-1.4L65.3,119.1z
	 M87.1,75.6l-25.2,43.6h1.7l26.7-46.2l-0.8-1.4L87.1,75.6z"/>
<polygon class="st0" points="130.7,47.7 116.9,71.5 103.2,47.7 "/>
<polygon class="st1" points="144.4,71.5 130.7,95.3 116.9,71.5 "/>
<polygon class="st4" points="116.9,71.5 130.7,47.7 144.4,71.5 "/>
<polygon class="st2" points="158.2,47.6 144.4,71.5 130.7,47.6 "/>
<polygon class="st0" points="130.7,95.3 144.4,71.5 158.2,95.3 "/>
<polygon class="st6" points="144.4,23.8 171.9,71.5 199.4,23.8 "/>
<path class="st0" d="M144.4,23.8l0.7,1.3l0.7-1.3H144.4z M147.6,23.8l-1.6,2.7l0.8,1.4l2.4-4.2H147.6z M150.9,23.8l-3.2,5.6l0.8,1.4
	l4.1-7.1H150.9z M154.3,23.8l-4.9,8.5l0.8,1.4l5.8-10H154.3z M157.6,23.8L151,35.3l0.8,1.5l7.4-12.9H157.6z M161,23.8l-8.3,14.3
	l0.8,1.4l9.1-15.8H161z M164.3,23.8l-9.9,17.2l0.8,1.4L166,23.8H164.3z M167.6,23.8L156,44l0.8,1.4l12.5-21.6H167.6z M171,23.8
	l-13.3,23l0.8,1.4l14.1-24.5H171z M174.3,23.8l-15,25.9l0.8,1.4L176,23.8H174.3z M177.7,23.8l-16.6,28.8l0.8,1.4l17.5-30.3H177.7z
	 M181,23.8l-18.3,31.7l0.8,1.4l19.1-33.2H181z M184.4,23.8l-20,34.6l0.8,1.4l20.8-36.1H184.4z M187.7,23.8l-21.7,37.5l0.8,1.5
	l22.5-39H187.7z M191.1,23.8l-23.3,40.4l0.8,1.4l24.2-41.9H191.1z M194.4,23.8l-25,43.3l0.8,1.5l25.8-44.8H194.4z M197.8,23.8
	L171.1,70l0.8,1.4l27.5-47.6H197.8z"/>
<polygon class="st1" points="158.2,95.3 171.9,71.5 185.7,95.3 "/>
<polygon class="st2" points="185.7,142.9 199.4,119.1 213.2,142.9 "/>
<polygon class="st2" points="34.4,119.2 48.1,95.4 61.9,119.2 "/>
<polygon class="st0" points="20.6,119.1 13.7,107.2 6.8,119.1 "/>
<polygon class="st4" points="20.6,119.1 27.5,131.1 34.4,119.1 "/>
<polygon class="st3" points="116.9,71.5 89.4,71.5 103.1,95.3 130.7,95.3 "/>
</svg>
