<svg xmlns="http://www.w3.org/2000/svg" height="16" width="14" viewBox="0 0 448 512"><path fill="#ffffff" d="M176 352h-48V48a16 16 0 0 0 -16-16H80a16 16 0 0 0 -16 16v304H16c-14.2 0-21.4 17.2-11.3 27.3l80 96a16 16 0 0 0 22.6 0l80-96C197.4 369.3 190.2 352 176 352zm240-64H288a16 16 0 0 0 -16 16v32a16 16 0 0 0 16 16h56l-61.3 70.5A32 32 0 0 0 272 446.4V464a16 16 0 0 0 16 16h128a16 16 0 0 0 16-16v-32a16 16 0 0 0 -16-16h-56l61.3-70.5A32 32 0 0 0 432 321.6V304a16 16 0 0 0 -16-16zm31.1-85.4l-59.3-160A16 16 0 0 0 372.7 32h-41.4a16 16 0 0 0 -15.1 10.6l-59.3 160A16 16 0 0 0 272 224h24.8a16 16 0 0 0 15.2-11.1l4.4-12.9h71l4.4 12.9A16 16 0 0 0 407.2 224H432a16 16 0 0 0 15.1-21.4zM335.6 144L352 96l16.4 48z"/></svg>